<?xml version="1.0" encoding="utf-8"?>
<!-- Generator: Adobe Illustrator 21.1.0, SVG Export Plug-In . SVG Version: 6.00 Build 0)  -->
<svg version="1.1" xmlns="http://www.w3.org/2000/svg" xmlns:xlink="http://www.w3.org/1999/xlink" x="0px" y="0px"
	 viewBox="0 0 193 194.2" style="enable-background:new 0 0 193 194.2;" xml:space="preserve">
<style type="text/css">
	.st0{fill:#F6A100;}
	.st1{fill:#ED9A00;}
	.st2{clip-path:url(#SVGID_2_);}
	.st3{fill:#D9A78C;}
	.st4{fill:#C0D0D8;}
	.st5{fill:#A7BDC8;}
	.st6{fill:#14A89A;}
	.st7{fill:#EAC0A7;}
	.st8{fill:#F2D7BC;}
	.st9{fill:#FFFFFF;}
	.st10{fill:#7F97A3;}
	.st11{fill:#8B5F3C;}
	.st12{fill:#827977;}
	.st13{fill:#7B7270;}
	.st14{clip-path:url(#SVGID_4_);}
	.st15{fill:#2A2D34;}
	.st16{fill:#690102;}
	.st17{fill:#2F343A;}
	.st18{fill:#B9C7D0;}
	.st19{fill:#129E95;}
	.st20{fill:#3A404C;}
	.st21{fill:#5A4980;}
	.st22{fill:#534378;}
	.st23{clip-path:url(#SVGID_6_);}
	.st24{fill:#461811;}
	.st25{fill:#EAC8AD;}
	.st26{fill:#EB1A3A;}
	.st27{fill:#C5132D;}
</style>
<g id="background">
</g>
<g id="Objects_1_">
	<g id="men_2">
		<g>
			<circle class="st0" cx="492.8" cy="376.8" r="85"/>
			<path class="st1" d="M577.8,376.8c0-46.9-38.1-85-85-85v170C539.7,461.8,577.8,423.7,577.8,376.8z"/>
		</g>
		<g>
			<defs>
				<circle id="SVGID_1_" cx="492.8" cy="376.8" r="85"/>
			</defs>
			<clipPath id="SVGID_2_">
				<use xlink:href="#SVGID_1_"  style="overflow:visible;"/>
			</clipPath>
			<g class="st2">
				<rect x="480.4" y="398.2" class="st3" width="24.9" height="27.3"/>
				<path class="st4" d="M477.3,414.5c0,0-23.7,3.5-27.2,7.1c-3,3.2-9.4,33.5-10.8,40.2c41.6,0,53.5,0,53.5,0v-46L477.3,414.5z"/>
				<path class="st5" d="M508.3,414.5c0,0,23.7,3.5,27.2,7.1c3,3.2,9.4,33.5,10.8,40.2c-41.6,0-53.5,0-53.5,0v-46L508.3,414.5z"/>
				<polygon class="st6" points="491.2,420.3 488,452.7 492.8,461.7 497.6,452.7 494.4,420.3 				"/>
				<path class="st6" d="M497,420l-4.2,4.2l-4.2-4.2l4.2-4.2L497,420z"/>
				<g>
					<path class="st7" d="M492.8,320.1c12.1,0,31.2,6.9,31.2,39.1c0,18.6-6.1,30.8-8.7,34.1c-2.4,3.1-16.1,9.7-22.5,9.7
						C492.8,370.5,492.8,320.1,492.8,320.1z"/>
					<path class="st7" d="M530,366.9c0.5-5.1-1.9-9.7-5.5-10.2c-3.6-0.5-6.9,3.3-7.4,8.4c-0.5,5.1,1.9,9.7,5.5,10.2
						C526.2,375.8,529.5,372,530,366.9z"/>
				</g>
				<g>
					<path class="st8" d="M492.8,320.1c-12.1,0-31.2,6.9-31.2,39.1c0,18.6,6.1,30.8,8.7,34.1c2.4,3.1,16.1,9.7,22.5,9.7
						C492.8,370.5,492.8,320.1,492.8,320.1z"/>
					<path class="st8" d="M455.6,366.9c-0.5-5.1,1.9-9.7,5.5-10.2c3.6-0.5,6.9,3.3,7.4,8.4c0.5,5.1-1.9,9.7-5.5,10.2
						C459.4,375.8,456.1,372,455.6,366.9z"/>
				</g>
				<polygon class="st9" points="492.8,415.8 480.2,410.7 477,413.8 483.3,427.8 				"/>
				<polygon class="st9" points="492.8,415.8 505.4,410.7 508.6,413.8 502.3,427.8 				"/>
				<rect x="465.4" y="447.9" class="st10" width="15.8" height="3.5"/>
				<rect x="504.4" y="447.9" class="st10" width="15.8" height="3.5"/>
				<path class="st11" d="M465.8,367.4h2.2c0,0-1.3-8.4,2.5-11.1c0-4.2,0-5.4,0-5.4s-1.5-0.2-1.5-6.5c0-6.4,7.6-10.9,23.8-10.9
					c0-9.1,0-19.6,0-19.6s-32.1,3.5-32.1,26.8c0,9.7,0,16,0,16s2.3-0.4,4,1C466.5,359.2,465.8,367.4,465.8,367.4z"/>
				<path class="st11" d="M519.5,367.4h-2.2c0,0,1.3-8.4-2.5-11.1c0-4.2,0-5.4,0-5.4s1.5-0.2,1.5-6.5c0-6.4-7.6-10.9-23.8-10.9
					c0-9.1,0-19.6,0-19.6s32.1,3.5,32.1,26.8c0,9.7,0,16,0,16s-2.3-0.4-4,1C518.8,359.2,519.5,367.4,519.5,367.4z"/>
				<path class="st9" d="M492.8,389.2c5.6,0,10.2-1.9,10.2-4.2h-20.4C482.6,387.3,487.2,389.2,492.8,389.2z"/>
			</g>
		</g>
	</g>
	<g id="men_3">
		<g>
			<circle class="st12" cx="97.6" cy="97.4" r="85"/>
			<path class="st13" d="M182.6,97.4c0-46.9-38.1-85-85-85v170C144.6,182.4,182.6,144.3,182.6,97.4z"/>
		</g>
		<g>
			<defs>
				<circle id="SVGID_3_" cx="97.6" cy="97.4" r="85"/>
			</defs>
			<clipPath id="SVGID_4_">
				<use xlink:href="#SVGID_3_"  style="overflow:visible;"/>
			</clipPath>
			<g class="st14">
				<g>
					<path class="st15" d="M113.1,135.1c0,0,23.7,3.5,27.2,7.1c3,3.2,9.4,33.5,10.8,40.2c-41.6,0-53.5,0-53.5,0v-43.1L113.1,135.1z"
						/>
					<rect x="85.2" y="119.4" class="st3" width="24.9" height="27.3"/>
					<g>
						<path class="st7" d="M97.6,40.7c12.1,0,31.2,6.9,31.2,39.1c0,18.6-6.1,30.8-8.7,34.1c-2.4,3.1-16.1,9.7-22.5,9.7
							C97.6,91.1,97.6,40.7,97.6,40.7z"/>
						<path class="st7" d="M134.8,87.5c0.5-5.1-1.9-9.7-5.5-10.2c-3.6-0.5-6.9,3.3-7.4,8.4c-0.5,5.1,1.9,9.7,5.5,10.2
							C131,96.4,134.3,92.6,134.8,87.5z"/>
					</g>
					<g>
						<path class="st8" d="M97.6,40.7c-12.1,0-31.2,6.9-31.2,39.1c0,18.6,6.1,30.8,8.7,34.1c2.4,3.1,16.1,9.7,22.5,9.7
							C97.6,91.1,97.6,40.7,97.6,40.7z"/>
						<path class="st8" d="M60.4,87.5c-0.5-5.1,1.9-9.7,5.5-10.2c3.6-0.5,6.9,3.3,7.4,8.4c0.5,5.1-1.9,9.7-5.5,10.2
							C64.3,96.4,60.9,92.6,60.4,87.5z"/>
					</g>
					<path class="st16" d="M81.3,47.5c0,0-10.6,12.5-6.5,24.2c0.7,13.9-0.7,18.6-5.2,22.5c1.1-13.5-0.2-18-5.2-16.4
						C62.5,67.2,66.8,38.7,81.3,47.5z"/>
					<path class="st16" d="M113.8,47.5c0,0,10.6,12.5,6.5,24.2c-0.7,13.9,0.7,18.6,5.2,22.5c-1.1-13.5,0.2-18,5.2-16.4
						C132.7,67.2,128.3,38.7,113.8,47.5z"/>
					<path class="st17" d="M82.2,135.1c0,0-23.7,3.5-27.2,7.1c-3,3.2-9.4,33.5-10.8,40.2c41.6,0,53.5,0,53.5,0v-43.1L82.2,135.1z"/>
					<polyline class="st18" points="113.4,134.5 97.6,137.7 81.9,134.5 97.6,182.4 					"/>
					<polygon class="st19" points="96.3,144.2 93.7,176.6 97.6,182.4 101.5,176.6 98.9,144.2 					"/>
					<path class="st20" d="M86.3,155.2l-12.5-18.6c3.4-1.2,7.1-2.2,11-2.8l12.9,48.6l-18.1-25.9L86.3,155.2z"/>
					<path class="st20" d="M109,155.2l12.5-18.6c-3.4-1.2-7.1-2.2-11-2.8l-12.9,48.6l18.1-25.9L109,155.2z"/>
					<path class="st19" d="M101.9,142.1l-4.2,4.4l-4.2-4.4l4.2-4.4L101.9,142.1z"/>
					<polygon class="st9" points="97.6,137.7 110.3,131.3 116.8,135.1 103.2,145.9 					"/>
					<polygon class="st9" points="97.6,137.7 85,131.3 78.5,135.1 91.8,145.9 					"/>
				</g>
				<path class="st16" d="M127.4,53c-5-20.4-35.3-36.5-56.6-4.4c-1.4,6.3,4.6,9.3,4.6,9.3s4-9.3,22.2-5c9.1-2,17.9-3.5,22,4.9
					C123.7,66.2,127.4,53,127.4,53z"/>
				<path class="st16" d="M115.5,109.9c-6.2,0-10.7-5.1-17.9-5.1c-7.2,0-11.6,5.1-17.9,5.1c-6.8,0-11.2-11.8-12.5-15.9
					c1.8,11.9,5.8,19.7,7.8,22.3c2.4,3.1,16.1,9.7,22.5,9.7h0l0,0c6.4,0,20.1-6.6,22.5-9.7c2-2.6,6.1-10.4,7.8-22.3
					C126.7,98,122.4,109.9,115.5,109.9z"/>
				<path class="st9" d="M97.6,115.5c2.1,0,3.8-0.9,3.8-2h-7.6C93.8,114.6,95.5,115.5,97.6,115.5z"/>
			</g>
		</g>
	</g>
	<g id="women_3">
		<g>
			<circle class="st21" cx="182.6" cy="342.6" r="85"/>
			<path class="st22" d="M267.6,342.6c0-46.9-38.1-85-85-85v170C229.6,427.6,267.6,389.5,267.6,342.6z"/>
		</g>
		<g>
			<defs>
				<circle id="SVGID_5_" cx="182.6" cy="342.6" r="85"/>
			</defs>
			<clipPath id="SVGID_6_">
				<use xlink:href="#SVGID_5_"  style="overflow:visible;"/>
			</clipPath>
			<g class="st23">
				<path class="st24" d="M149.9,327.4c0,14.2-7.8,14.6-7.3,24c0.6,10.4,8.8,10.5,8.8,17.6c0,7.2-7.5,15.2-0.9,23
					c29.2,0,32.1,0,32.1,0V305L149.9,327.4z"/>
				<path class="st24" d="M215.4,327.4c0,14.2,7.8,14.6,7.3,24c-0.6,10.4-8.8,10.5-8.8,17.6c0,7.2,7.5,15.2,0.9,23
					c-29.2,0-32.1,0-32.1,0V305L215.4,327.4z"/>
				<g>
					<circle class="st24" cx="182.8" cy="312.7" r="37.2"/>
					<polygon class="st25" points="195.2,392.4 182.6,427.7 170.3,392.4 170.3,365.1 195.2,365.1 					"/>
					<g>
						<path class="st8" d="M182.8,289.4c-12.1,0-31.2,6.9-31.2,39.1c0,18.6,7.2,27.4,9.9,30.7c2.4,3.1,14.9,13.1,21.3,13.1
							C182.8,339.8,182.8,289.4,182.8,289.4z"/>
						<path class="st8" d="M145.6,336.2c-0.5-5.1,1.9-9.7,5.5-10.2c3.6-0.5,6.9,3.3,7.4,8.4c0.5,5.1-1.9,9.7-5.5,10.2
							C149.4,345.1,146.1,341.3,145.6,336.2z"/>
					</g>
					<g>
						<g>
							<g>
								<path class="st7" d="M182.7,289.4c12.1,0,31.2,6.9,31.2,39.1c0,18.6-7.2,27.4-9.9,30.7c-2.4,3.1-14.9,13.1-21.3,13.1
									C182.7,339.8,182.7,289.4,182.7,289.4z"/>
							</g>
							<g>
								<path class="st7" d="M220,336.2c0.5-5.1-1.9-9.7-5.5-10.2c-3.6-0.5-6.9,3.3-7.4,8.4c-0.5,5.1,1.9,9.7,5.5,10.2
									C216.2,345.1,219.5,341.3,220,336.2z"/>
							</g>
						</g>
					</g>
					<path class="st25" d="M182.6,427.7v-34c0,0-9.3-2.3-11.3-9.8c-1-3.6-1-6.5-1-6.5s-20.3,6.9-24.8,13.9
						c-3.8,11.2-4.8,36.4-4.8,36.4H182.6z"/>
					<path class="st25" d="M182.6,427.7v-34c0,0,9.3-2.3,11.3-9.8c1-3.6,1-6.5,1-6.5s20.3,6.9,24.8,13.9c3.8,11.2,4.8,36.4,4.8,36.4
						H182.6z"/>
					<path class="st9" d="M182.8,361c4.7,0,8.5-2.9,8.5-6.5h-17.1C174.3,358.1,178.1,361,182.8,361z"/>
					<path class="st26" d="M182.6,414.4c0,0-8.9-22.4-12.3-37c-3.4,1.3-6.2,2.1-8.3,3.2c-10.1,21.2-10.5,47.1-10.5,47.1h31V414.4z"
						/>
					<path class="st27" d="M182.8,414.4c0,0,8.9-22.4,12.3-37c3.4,1.3,6.2,2.1,8.3,3.2c10.1,21.2,10.5,47.1,10.5,47.1h-31V414.4z"/>
				</g>
				<path class="st24" d="M181,280.2c-22.1,0-28.8,19.3-28.8,28.3c-8,11.1,0.7,21.1,6.9,24.6c0-2.1,0-2.8,0-5.5
					c0-7.2,6.8-13.9,17.1-12.8c9.2,1,15-4.2,19.9-13.1C202.2,289.9,194.7,280.2,181,280.2z"/>
				<path class="st24" d="M195.2,298.1c0,0,5.2,20.9,19.3,27.9c2.5-18.8,4-14.9,0-24.8c-4-9.9-19.3-17.3-19.3-17.3V298.1z"/>
			</g>
		</g>
	</g>
</g>
</svg>
