<?xml version="1.0" encoding="utf-8"?>
<!-- Generator: Adobe Illustrator 21.1.0, SVG Export Plug-In . SVG Version: 6.00 Build 0)  -->
<svg version="1.1" xmlns="http://www.w3.org/2000/svg" xmlns:xlink="http://www.w3.org/1999/xlink" x="0px" y="0px"
	 viewBox="0 0 193 194.2" style="enable-background:new 0 0 193 194.2;" xml:space="preserve">
<style type="text/css">
	.st0{fill:#F6A100;}
	.st1{fill:#ED9A00;}
	.st2{clip-path:url(#SVGID_2_);}
	.st3{fill:#D9A78C;}
	.st4{fill:#C0D0D8;}
	.st5{fill:#A7BDC8;}
	.st6{fill:#14A89A;}
	.st7{fill:#EAC0A7;}
	.st8{fill:#F2D7BC;}
	.st9{fill:#FFFFFF;}
	.st10{fill:#7F97A3;}
	.st11{fill:#8B5F3C;}
	.st12{fill:#827977;}
	.st13{fill:#7B7270;}
	.st14{clip-path:url(#SVGID_4_);}
	.st15{fill:#2A2D34;}
	.st16{fill:#690102;}
	.st17{fill:#2F343A;}
	.st18{fill:#B9C7D0;}
	.st19{fill:#129E95;}
	.st20{fill:#3A404C;}
	.st21{fill:#5A4980;}
	.st22{fill:#534378;}
	.st23{clip-path:url(#SVGID_6_);}
	.st24{fill:#461811;}
	.st25{fill:#EAC8AD;}
	.st26{fill:#EB1A3A;}
	.st27{fill:#C5132D;}
</style>
<g id="background">
</g>
<g id="Objects_1_">
	<g id="men_2">
		<g>
			<circle class="st0" cx="96.5" cy="97.1" r="85"/>
			<path class="st1" d="M181.5,97.1c0-46.9-38.1-85-85-85v170C143.4,182.1,181.5,144,181.5,97.1z"/>
		</g>
		<g>
			<defs>
				<circle id="SVGID_1_" cx="96.5" cy="97.1" r="85"/>
			</defs>
			<clipPath id="SVGID_2_">
				<use xlink:href="#SVGID_1_"  style="overflow:visible;"/>
			</clipPath>
			<g class="st2">
				<rect x="84.1" y="118.5" class="st3" width="24.9" height="27.3"/>
				<path class="st4" d="M81,134.8c0,0-23.7,3.5-27.2,7.1c-3,3.2-9.4,33.5-10.8,40.2c41.6,0,53.5,0,53.5,0v-46L81,134.8z"/>
				<path class="st5" d="M112,134.8c0,0,23.7,3.5,27.2,7.1c3,3.2,9.4,33.5,10.8,40.2c-41.6,0-53.5,0-53.5,0v-46L112,134.8z"/>
				<polygon class="st6" points="94.9,140.6 91.7,173 96.5,182 101.3,173 98.1,140.6 				"/>
				<path class="st6" d="M100.7,140.3l-4.2,4.2l-4.2-4.2l4.2-4.2L100.7,140.3z"/>
				<g>
					<path class="st7" d="M96.5,40.4c12.1,0,31.2,6.9,31.2,39.1c0,18.6-6.1,30.8-8.7,34.1c-2.4,3.1-16.1,9.7-22.5,9.7
						C96.5,90.8,96.5,40.4,96.5,40.4z"/>
					<path class="st7" d="M133.7,87.2c0.5-5.1-1.9-9.7-5.5-10.2c-3.6-0.5-6.9,3.3-7.4,8.4c-0.5,5.1,1.9,9.7,5.5,10.2
						C129.9,96.1,133.2,92.3,133.7,87.2z"/>
				</g>
				<g>
					<path class="st8" d="M96.5,40.4c-12.1,0-31.2,6.9-31.2,39.1c0,18.6,6.1,30.8,8.7,34.1c2.4,3.1,16.1,9.7,22.5,9.7
						C96.5,90.8,96.5,40.4,96.5,40.4z"/>
					<path class="st8" d="M59.3,87.2c-0.5-5.1,1.9-9.7,5.5-10.2c3.6-0.5,6.9,3.3,7.4,8.4c0.5,5.1-1.9,9.7-5.5,10.2
						C63.1,96.1,59.8,92.3,59.3,87.2z"/>
				</g>
				<polygon class="st9" points="96.5,136.1 83.9,131 80.7,134.2 87,148.1 				"/>
				<polygon class="st9" points="96.5,136.1 109.1,131 112.3,134.2 106,148.1 				"/>
				<rect x="69.1" y="168.2" class="st10" width="15.8" height="3.5"/>
				<rect x="108.1" y="168.2" class="st10" width="15.8" height="3.5"/>
				<path class="st11" d="M69.5,87.7h2.2c0,0-1.3-8.4,2.5-11.1c0-4.2,0-5.4,0-5.4s-1.5-0.2-1.5-6.5c0-6.4,7.6-10.9,23.8-10.9
					c0-9.1,0-19.6,0-19.6S64.4,37.7,64.4,61c0,9.7,0,16,0,16s2.3-0.4,4,1C70.2,79.5,69.5,87.7,69.5,87.7z"/>
				<path class="st11" d="M123.2,87.7h-2.2c0,0,1.3-8.4-2.5-11.1c0-4.2,0-5.4,0-5.4s1.5-0.2,1.5-6.5c0-6.4-7.6-10.9-23.8-10.9
					c0-9.1,0-19.6,0-19.6s32.1,3.5,32.1,26.8c0,9.7,0,16,0,16s-2.3-0.4-4,1C122.5,79.5,123.2,87.7,123.2,87.7z"/>
				<path class="st9" d="M96.5,109.5c5.6,0,10.2-1.9,10.2-4.2H86.3C86.3,107.6,90.9,109.5,96.5,109.5z"/>
			</g>
		</g>
	</g>
	<g id="men_3">
		<g>
			<circle class="st12" cx="646.7" cy="97.4" r="85"/>
			<path class="st13" d="M731.7,97.4c0-46.9-38.1-85-85-85v170C693.6,182.4,731.7,144.3,731.7,97.4z"/>
		</g>
		<g>
			<defs>
				<circle id="SVGID_3_" cx="646.7" cy="97.4" r="85"/>
			</defs>
			<clipPath id="SVGID_4_">
				<use xlink:href="#SVGID_3_"  style="overflow:visible;"/>
			</clipPath>
			<g class="st14">
				<g>
					<path class="st15" d="M662.1,135.1c0,0,23.7,3.5,27.2,7.1c3,3.2,9.4,33.5,10.8,40.2c-41.6,0-53.5,0-53.5,0v-43.1L662.1,135.1z"
						/>
					<rect x="634.2" y="119.4" class="st3" width="24.9" height="27.3"/>
					<g>
						<path class="st7" d="M646.7,40.7c12.1,0,31.2,6.9,31.2,39.1c0,18.6-6.1,30.8-8.7,34.1c-2.4,3.1-16.1,9.7-22.5,9.7
							C646.7,91.1,646.7,40.7,646.7,40.7z"/>
						<path class="st7" d="M683.9,87.5c0.5-5.1-1.9-9.7-5.5-10.2c-3.6-0.5-6.9,3.3-7.4,8.4c-0.5,5.1,1.9,9.7,5.5,10.2
							C680,96.4,683.3,92.6,683.9,87.5z"/>
					</g>
					<g>
						<path class="st8" d="M646.7,40.7c-12.1,0-31.2,6.9-31.2,39.1c0,18.6,6.1,30.8,8.7,34.1c2.4,3.1,16.1,9.7,22.5,9.7
							C646.7,91.1,646.7,40.7,646.7,40.7z"/>
						<path class="st8" d="M609.4,87.5c-0.5-5.1,1.9-9.7,5.5-10.2c3.6-0.5,6.9,3.3,7.4,8.4c0.5,5.1-1.9,9.7-5.5,10.2
							C613.3,96.4,610,92.6,609.4,87.5z"/>
					</g>
					<path class="st16" d="M630.4,47.5c0,0-10.6,12.5-6.5,24.2c0.7,13.9-0.7,18.6-5.2,22.5c1.1-13.5-0.2-18-5.2-16.4
						C611.5,67.2,615.9,38.7,630.4,47.5z"/>
					<path class="st16" d="M662.9,47.5c0,0,10.6,12.5,6.5,24.2c-0.7,13.9,0.7,18.6,5.2,22.5c-1.1-13.5,0.2-18,5.2-16.4
						C681.7,67.2,677.4,38.7,662.9,47.5z"/>
					<path class="st17" d="M631.2,135.1c0,0-23.7,3.5-27.2,7.1c-3,3.2-9.4,33.5-10.8,40.2c41.6,0,53.5,0,53.5,0v-43.1L631.2,135.1z"
						/>
					<polyline class="st18" points="662.4,134.5 646.7,137.7 630.9,134.5 646.7,182.4 					"/>
					<polygon class="st19" points="645.3,144.2 642.8,176.6 646.7,182.4 650.5,176.6 648,144.2 					"/>
					<path class="st20" d="M635.3,155.2l-12.5-18.6c3.4-1.2,7.1-2.2,11-2.8l12.9,48.6l-18.1-25.9L635.3,155.2z"/>
					<path class="st20" d="M658,155.2l12.5-18.6c-3.4-1.2-7.1-2.2-11-2.8l-12.9,48.6l18.1-25.9L658,155.2z"/>
					<path class="st19" d="M650.9,142.1l-4.2,4.4l-4.2-4.4l4.2-4.4L650.9,142.1z"/>
					<polygon class="st9" points="646.7,137.7 659.3,131.3 665.8,135.1 652.3,145.9 					"/>
					<polygon class="st9" points="646.7,137.7 634,131.3 627.5,135.1 640.8,145.9 					"/>
				</g>
				<path class="st16" d="M676.5,53c-5-20.4-35.3-36.5-56.6-4.4c-1.4,6.3,4.6,9.3,4.6,9.3s4-9.3,22.2-5c9.1-2,17.9-3.5,22,4.9
					C672.8,66.2,676.5,53,676.5,53z"/>
				<path class="st16" d="M664.5,109.8c-6.2,0-10.7-5.1-17.9-5.1c-7.2,0-11.6,5.1-17.9,5.1c-6.8,0-11.2-11.8-12.5-15.9
					c1.8,11.9,5.8,19.7,7.8,22.3c2.4,3.1,16.1,9.7,22.5,9.7h0l0,0c6.4,0,20.1-6.6,22.5-9.7c2-2.6,6.1-10.4,7.8-22.3
					C675.7,98,671.4,109.8,664.5,109.8z"/>
				<path class="st9" d="M646.7,115.5c2.1,0,3.8-0.9,3.8-2h-7.6C642.8,114.6,644.6,115.5,646.7,115.5z"/>
			</g>
		</g>
	</g>
	<g id="women_3">
		<g>
			<circle class="st21" cx="182.6" cy="342.6" r="85"/>
			<path class="st22" d="M267.6,342.6c0-46.9-38.1-85-85-85v170C229.6,427.6,267.6,389.5,267.6,342.6z"/>
		</g>
		<g>
			<defs>
				<circle id="SVGID_5_" cx="182.6" cy="342.6" r="85"/>
			</defs>
			<clipPath id="SVGID_6_">
				<use xlink:href="#SVGID_5_"  style="overflow:visible;"/>
			</clipPath>
			<g class="st23">
				<path class="st24" d="M149.9,327.4c0,14.2-7.8,14.6-7.3,24c0.6,10.4,8.8,10.5,8.8,17.6c0,7.2-7.5,15.2-0.9,23
					c29.2,0,32.1,0,32.1,0V305L149.9,327.4z"/>
				<path class="st24" d="M215.4,327.4c0,14.2,7.8,14.6,7.3,24c-0.6,10.4-8.8,10.5-8.8,17.6c0,7.2,7.5,15.2,0.9,23
					c-29.2,0-32.1,0-32.1,0V305L215.4,327.4z"/>
				<g>
					<circle class="st24" cx="182.8" cy="312.7" r="37.2"/>
					<polygon class="st25" points="195.2,392.4 182.6,427.7 170.3,392.4 170.3,365.1 195.2,365.1 					"/>
					<g>
						<path class="st8" d="M182.8,289.4c-12.1,0-31.2,6.9-31.2,39.1c0,18.6,7.2,27.4,9.9,30.7c2.4,3.1,14.9,13.1,21.3,13.1
							C182.8,339.8,182.8,289.4,182.8,289.4z"/>
						<path class="st8" d="M145.6,336.2c-0.5-5.1,1.9-9.7,5.5-10.2c3.6-0.5,6.9,3.3,7.4,8.4c0.5,5.1-1.9,9.7-5.5,10.2
							C149.4,345.1,146.1,341.3,145.6,336.2z"/>
					</g>
					<g>
						<g>
							<g>
								<path class="st7" d="M182.7,289.4c12.1,0,31.2,6.9,31.2,39.1c0,18.6-7.2,27.4-9.9,30.7c-2.4,3.1-14.9,13.1-21.3,13.1
									C182.7,339.8,182.7,289.4,182.7,289.4z"/>
							</g>
							<g>
								<path class="st7" d="M220,336.2c0.5-5.1-1.9-9.7-5.5-10.2c-3.6-0.5-6.9,3.3-7.4,8.4c-0.5,5.1,1.9,9.7,5.5,10.2
									C216.2,345.1,219.5,341.3,220,336.2z"/>
							</g>
						</g>
					</g>
					<path class="st25" d="M182.6,427.7v-34c0,0-9.3-2.3-11.3-9.8c-1-3.6-1-6.5-1-6.5s-20.3,6.9-24.8,13.9
						c-3.8,11.2-4.8,36.4-4.8,36.4H182.6z"/>
					<path class="st25" d="M182.6,427.7v-34c0,0,9.3-2.3,11.3-9.8c1-3.6,1-6.5,1-6.5s20.3,6.9,24.8,13.9c3.8,11.2,4.8,36.4,4.8,36.4
						H182.6z"/>
					<path class="st9" d="M182.8,361c4.7,0,8.5-2.9,8.5-6.5h-17.1C174.3,358.1,178.1,361,182.8,361z"/>
					<path class="st26" d="M182.6,414.4c0,0-8.9-22.4-12.3-37c-3.4,1.3-6.2,2.1-8.3,3.2c-10.1,21.2-10.5,47.1-10.5,47.1h31V414.4z"
						/>
					<path class="st27" d="M182.8,414.4c0,0,8.9-22.4,12.3-37c3.4,1.3,6.2,2.1,8.3,3.2c10.1,21.2,10.5,47.1,10.5,47.1h-31V414.4z"/>
				</g>
				<path class="st24" d="M181,280.2c-22.1,0-28.8,19.3-28.8,28.3c-8,11.1,0.7,21.1,6.9,24.6c0-2.1,0-2.8,0-5.5
					c0-7.2,6.8-13.9,17.1-12.8c9.2,1,15-4.2,19.9-13.1C202.2,289.9,194.7,280.2,181,280.2z"/>
				<path class="st24" d="M195.2,298.1c0,0,5.2,20.9,19.3,27.9c2.5-18.8,4-14.9,0-24.8c-4-9.9-19.3-17.3-19.3-17.3V298.1z"/>
			</g>
		</g>
	</g>
</g>
</svg>
