<?xml version="1.0" encoding="utf-8"?>
<!-- Generator: Adobe Illustrator 21.1.0, SVG Export Plug-In . SVG Version: 6.00 Build 0)  -->
<svg version="1.1" id="Layer_1" xmlns="http://www.w3.org/2000/svg" xmlns:xlink="http://www.w3.org/1999/xlink" x="0px" y="0px"
	 viewBox="0 0 125 116.7" style="enable-background:new 0 0 125 116.7;" xml:space="preserve">
<style type="text/css">
	.st0{fill:#FF6719;}
</style>
<g>
	<circle class="st0" cx="62.5" cy="16.7" r="12.3"/>
	<g>
		<path class="st0" d="M23.7,36.7c-0.1-0.6-0.6-0.9-1.2-1.1c-0.6-0.2-1.4-0.3-2.2-0.3c-1.8,0-2.7,0.3-2.7,0.9
			c0,2.4,14.7,0.9,14.7,6.8c0,3.7-4.9,5.6-12,5.6c-6.7,0-11.2-2.5-11.3-5.4h8c0.2,0.6,0.7,1,1.4,1.3c0.7,0.3,1.6,0.4,2.4,0.4
			c2.1,0,3.5-0.4,3.5-1.2c0-2.4-14.7-0.8-14.7-6.9c0-3.4,4.7-5.2,11.1-5.2c7.1,0,10.3,2.3,10.9,5.1H23.7z"/>
		<path class="st0" d="M36.2,48.1V32H57v3.8H44.6v2.3h10.5v3.8H44.6v2.5h13v3.8H36.2z"/>
		<path class="st0" d="M78.6,40.8l-0.3-3.7V32h8v16.1h-7.9l-9.1-8.8l0.3,3.7v5.1h-8V32h7.9L78.6,40.8z"/>
		<path class="st0" d="M89.1,48.1L98.3,32h8.5l9.2,16.1h-8.3l-1-2.1h-8.3l-1,2.1H89.1z M102.5,36.8l-2.6,5.8h5.3L102.5,36.8z"/>
	</g>
	<g>
		<polygon class="st0" points="117.8,51.6 66.6,51.6 96.4,104.6 103,98.9 79.1,59 118.1,58.9 		"/>
		<polygon class="st0" points="7.2,51.6 58.4,51.6 28.6,104.6 22,98.9 45.9,59 6.9,58.9 		"/>
		<polygon class="st0" points="34.3,108.9 62.3,60.6 91,108.4 83.4,111.8 62.9,75.1 41,112.3 		"/>
	</g>
</g>
</svg>
